#Produced by Art of Illusion 2.3.1, Sun Oct 15 21:36:15 MDT 2006
mtllib PanelLight.mtl
g Cube_3
usemtl Light
v -11.5 -0.5 23.5
v 11.5 -0.5 23.5
v 11.5 -0.5 -23.5
v -11.5 -0.5 -23.5
v -11.5 0.5 23.5
v 11.5 0.5 23.5
v 11.5 0.5 -23.5
v -11.5 0.5 -23.5
v 0 0 23.5
v 11.5 0 0
v 0 0 -23.5
v -11.5 0 0
v 0 -0.5 0
v 0 0.5 0
vn -0.57735 -0.57735 0.57735
vn 0.57735 -0.57735 0.57735
vn 0.57735 -0.57735 -0.57735
vn -0.57735 -0.57735 -0.57735
vn -0.57735 0.57735 0.57735
vn 0.57735 0.57735 0.57735
vn 0.57735 0.57735 -0.57735
vn -0.57735 0.57735 -0.57735
vn 0 0 1
vn 1 0 0
vn 0 0 -1
vn -1 0 0
vn 0 -1 0
vn 0 1 0
f 2//2 1//1 13//13
f 3//3 2//2 13//13
f 4//4 3//3 13//13
f 1//1 4//4 13//13
f 2//2 3//3 10//10
f 3//3 7//7 10//10
f 7//7 6//6 10//10
f 6//6 2//2 10//10
f 1//1 2//2 9//9
f 2//2 6//6 9//9
f 6//6 5//5 9//9
f 5//5 1//1 9//9
f 4//4 1//1 12//12
f 1//1 5//5 12//12
f 5//5 8//8 12//12
f 8//8 4//4 12//12
f 5//5 6//6 14//14
f 6//6 7//7 14//14
f 7//7 8//8 14//14
f 8//8 5//5 14//14
f 3//3 4//4 11//11
f 4//4 8//8 11//11
f 8//8 7//7 11//11
f 7//7 3//3 11//11
