#Produced by Art of Illusion 2.3.1, Mon Nov 13 21:25:23 MST 2006
mtllib Table.mtl
g Top
usemtl Image_Wood
v -37.95 0 21.75
v 37.75 0 21.75
v 37.75 0 -21.75
v -37.95 0 -21.75
v -37.95 2.125 21.75
v 37.75 2.125 21.75
v 37.75 2.125 -21.75
v -37.95 2.125 -21.75
v 0 1.0625 21.75
v 37.75 1.0625 0
v 0 1.0625 -21.75
v -37.95 1.0625 0
v 0 0 0
v 0 2.125 0
vn -0.57735 -0.57735 0.57735
vn 0.57735 -0.57735 0.57735
vn 0.57735 -0.57735 -0.57735
vn -0.57735 -0.57735 -0.57735
vn -0.57735 0.57735 0.57735
vn 0.57735 0.57735 0.57735
vn 0.57735 0.57735 -0.57735
vn -0.57735 0.57735 -0.57735
vn 0 0 1
vn 1 0 0
vn 0 0 -1
vn -1 0 0
vn 0 -1 0
vn 0 1 0
vt 0 0
vt 1 0
vt 1 1
vt 0 1
vt 0 0
vt 1 0
vt 1 1
vt 0 1
vt 0.5 0
vt 1 0.5
vt 0.5 1
vt 0 0.5
vt 0.5 0.5
vt 0.5 0.5
f 2/2/2 1/1/1 13/13/13
f 3/3/3 2/2/2 13/13/13
f 4/4/4 3/3/3 13/13/13
f 1/1/1 4/4/4 13/13/13
f 2/2/2 3/3/3 10/10/10
f 3/3/3 7/7/7 10/10/10
f 7/7/7 6/6/6 10/10/10
f 6/6/6 2/2/2 10/10/10
f 1/1/1 2/2/2 9/9/9
f 2/2/2 6/6/6 9/9/9
f 6/6/6 5/5/5 9/9/9
f 5/5/5 1/1/1 9/9/9
f 4/4/4 1/1/1 12/12/12
f 1/1/1 5/5/5 12/12/12
f 5/5/5 8/8/8 12/12/12
f 8/8/8 4/4/4 12/12/12
f 5/5/5 6/6/6 14/14/14
f 6/6/6 7/7/7 14/14/14
f 7/7/7 8/8/8 14/14/14
f 8/8/8 5/5/5 14/14/14
f 3/3/3 4/4/4 11/11/11
f 4/4/4 8/8/8 11/11/11
f 8/8/8 7/7/7 11/11/11
f 7/7/7 3/3/3 11/11/11
g Cube_2
usemtl Image_Wood
v 35.875 -23.75 21.625
v 37.625 -23.75 21.625
v 37.625 -23.75 -21.625
v 35.875 -23.75 -21.625
v 35.875 0 21.625
v 37.625 0 21.625
v 37.625 0 -21.625
v 35.875 0 -21.625
v 36.75 -11.875 21.625
v 37.625 -11.875 10
v 36.75 -11.875 -21.625
v 35.875 -11.875 10
v 36.75 -23.75 10
v 36.75 0 10
vn -0.57735 -0.57735 0.57735
vn 0.57735 -0.57735 0.57735
vn 0.57735 -0.57735 -0.57735
vn -0.57735 -0.57735 -0.57735
vn -0.57735 0.57735 0.57735
vn 0.57735 0.57735 0.57735
vn 0.57735 0.57735 -0.57735
vn -0.57735 0.57735 -0.57735
vn 0 0 1
vn 1 0 0
vn 0 0 -1
vn -1 0 0
vn 0 -1 0
vn 0 1 0
vt 0.62435 0.76724
vt 0.62435 0.76724
vt 0.62435 0.23276
vt 0.62435 0.23276
vt 0.37565 0.76724
vt 0.37565 0.76724
vt 0.37565 0.23276
vt 0.37565 0.23276
vt 0.5 0.76724
vt 0.5 0.5
vt 0.5 0.23276
vt 0.5 0.5
vt 0.62435 0.5
vt 0.37565 0.5
f 16/16/16 15/15/15 27/27/27
f 17/17/17 16/16/16 27/27/27
f 18/18/18 17/17/17 27/27/27
f 15/15/15 18/18/18 27/27/27
f 16/16/16 17/17/17 24/24/24
f 17/17/17 21/21/21 24/24/24
f 21/21/21 20/20/20 24/24/24
f 20/20/20 16/16/16 24/24/24
f 15/15/15 16/16/16 23/23/23
f 16/16/16 20/20/20 23/23/23
f 20/20/20 19/19/19 23/23/23
f 19/19/19 15/15/15 23/23/23
f 18/18/18 15/15/15 26/26/26
f 15/15/15 19/19/19 26/26/26
f 19/19/19 22/22/22 26/26/26
f 22/22/22 18/18/18 26/26/26
f 19/19/19 20/20/20 28/28/28
f 20/20/20 21/21/21 28/28/28
f 21/21/21 22/22/22 28/28/28
f 22/22/22 19/19/19 28/28/28
f 17/17/17 18/18/18 25/25/25
f 18/18/18 22/22/22 25/25/25
f 22/22/22 21/21/21 25/25/25
f 21/21/21 17/17/17 25/25/25
g Cube_2_1
usemtl Image_Wood
v -38.0625 -23.75 21.625
v -36.0875 -23.75 21.625
v -36.0875 -23.75 -21.625
v -38.0625 -23.75 -21.625
v -38.0625 0 21.625
v -36.0875 0 21.625
v -36.0875 0 -21.625
v -38.0625 0 -21.625
v -37.075 -11.875 21.625
v -36.0875 -11.875 20
v -37.075 -11.875 -21.625
v -38.0625 -11.875 20
v -37.075 -23.75 20
v -37.075 0 20
vn -0.57735 -0.57735 0.57735
vn 0.57735 -0.57735 0.57735
vn 0.57735 -0.57735 -0.57735
vn -0.57735 -0.57735 -0.57735
vn -0.57735 0.57735 0.57735
vn 0.57735 0.57735 0.57735
vn 0.57735 0.57735 -0.57735
vn -0.57735 0.57735 -0.57735
vn 0 0 1
vn 1 0 0
vn 0 0 -1
vn -1 0 0
vn 0 -1 0
vn 0 1 0
vt 0.62435 0.76724
vt 0.62435 0.76724
vt 0.62435 0.23276
vt 0.62435 0.23276
vt 0.37565 0.76724
vt 0.37565 0.76724
vt 0.37565 0.23276
vt 0.37565 0.23276
vt 0.5 0.76724
vt 0.5 0.5
vt 0.5 0.23276
vt 0.5 0.5
vt 0.62435 0.5
vt 0.37565 0.5
f 30/30/30 29/29/29 41/41/41
f 31/31/31 30/30/30 41/41/41
f 32/32/32 31/31/31 41/41/41
f 29/29/29 32/32/32 41/41/41
f 30/30/30 31/31/31 38/38/38
f 31/31/31 35/35/35 38/38/38
f 35/35/35 34/34/34 38/38/38
f 34/34/34 30/30/30 38/38/38
f 29/29/29 30/30/30 37/37/37
f 30/30/30 34/34/34 37/37/37
f 34/34/34 33/33/33 37/37/37
f 33/33/33 29/29/29 37/37/37
f 32/32/32 29/29/29 40/40/40
f 29/29/29 33/33/33 40/40/40
f 33/33/33 36/36/36 40/40/40
f 36/36/36 32/32/32 40/40/40
f 33/33/33 34/34/34 42/42/42
f 34/34/34 35/35/35 42/42/42
f 35/35/35 36/36/36 42/42/42
f 36/36/36 33/33/33 42/42/42
f 31/31/31 32/32/32 39/39/39
f 32/32/32 36/36/36 39/39/39
f 36/36/36 35/35/35 39/39/39
f 35/35/35 31/31/31 39/39/39
g Cube_3
usemtl Image_Wood
v -26.875 -3.5 8.375
v 26.875 -3.5 8.375
v 26.875 -3.5 6.875
v -26.875 -3.5 6.875
v -26.875 0 8.375
v 26.875 0 8.375
v 26.875 0 6.875
v -26.875 0 6.875
v 0 -1.75 8.375
v 26.875 -1.75 7.625
v 0 -1.75 6.875
v -26.875 -1.75 7.625
v 0 -3.5 7.625
v 0 0 7.625
vn -0.57735 -0.57735 0.57735
vn 0.57735 -0.57735 0.57735
vn 0.57735 -0.57735 -0.57735
vn -0.57735 -0.57735 -0.57735
vn -0.57735 0.57735 0.57735
vn 0.57735 0.57735 0.57735
vn 0.57735 0.57735 -0.57735
vn -0.57735 0.57735 -0.57735
vn 0 0 1
vn 1 0 0
vn 0 0 -1
vn -1 0 0
vn 0 -1 0
vn 0 1 0
vt 0.21859 0.45977
vt 0.78141 0.45977
vt 0.78141 0.45977
vt 0.21859 0.45977
vt 0.21859 0.54023
vt 0.78141 0.54023
vt 0.78141 0.54023
vt 0.21859 0.54023
vt 0.5 0.5
vt 0.78141 0.5
vt 0.5 0.5
vt 0.21859 0.5
vt 0.5 0.45977
vt 0.5 0.54023
f 44/44/44 43/43/43 55/55/55
f 45/45/45 44/44/44 55/55/55
f 46/46/46 45/45/45 55/55/55
f 43/43/43 46/46/46 55/55/55
f 44/44/44 45/45/45 52/52/52
f 45/45/45 49/49/49 52/52/52
f 49/49/49 48/48/48 52/52/52
f 48/48/48 44/44/44 52/52/52
f 43/43/43 44/44/44 51/51/51
f 44/44/44 48/48/48 51/51/51
f 48/48/48 47/47/47 51/51/51
f 47/47/47 43/43/43 51/51/51
f 46/46/46 43/43/43 54/54/54
f 43/43/43 47/47/47 54/54/54
f 47/47/47 50/50/50 54/54/54
f 50/50/50 46/46/46 54/54/54
f 47/47/47 48/48/48 56/56/56
f 48/48/48 49/49/49 56/56/56
f 49/49/49 50/50/50 56/56/56
f 50/50/50 47/47/47 56/56/56
f 45/45/45 46/46/46 53/53/53
f 46/46/46 50/50/50 53/53/53
f 50/50/50 49/49/49 53/53/53
f 49/49/49 45/45/45 53/53/53
g Cube_3_1
usemtl Image_Wood
v -26.875 -3.5 -6.875
v 26.875 -3.5 -6.875
v 26.875 -3.5 -8.375
v -26.875 -3.5 -8.375
v -26.875 0 -6.875
v 26.875 0 -6.875
v 26.875 0 -8.375
v -26.875 0 -8.375
v 0 -1.75 -6.875
v 26.875 -1.75 -7.625
v 0 -1.75 -8.375
v -26.875 -1.75 -7.625
v 0 -3.5 -7.625
v 0 0 -7.625
vn -0.57735 -0.57735 0.57735
vn 0.57735 -0.57735 0.57735
vn 0.57735 -0.57735 -0.57735
vn -0.57735 -0.57735 -0.57735
vn -0.57735 0.57735 0.57735
vn 0.57735 0.57735 0.57735
vn 0.57735 0.57735 -0.57735
vn -0.57735 0.57735 -0.57735
vn 0 0 1
vn 1 0 0
vn 0 0 -1
vn -1 0 0
vn 0 -1 0
vn 0 1 0
vt 0.21859 0.45977
vt 0.78141 0.45977
vt 0.78141 0.45977
vt 0.21859 0.45977
vt 0.21859 0.54023
vt 0.78141 0.54023
vt 0.78141 0.54023
vt 0.21859 0.54023
vt 0.5 0.5
vt 0.78141 0.5
vt 0.5 0.5
vt 0.21859 0.5
vt 0.5 0.45977
vt 0.5 0.54023
f 58/58/58 57/57/57 69/69/69
f 59/59/59 58/58/58 69/69/69
f 60/60/60 59/59/59 69/69/69
f 57/57/57 60/60/60 69/69/69
f 58/58/58 59/59/59 66/66/66
f 59/59/59 63/63/63 66/66/66
f 63/63/63 62/62/62 66/66/66
f 62/62/62 58/58/58 66/66/66
f 57/57/57 58/58/58 65/65/65
f 58/58/58 62/62/62 65/65/65
f 62/62/62 61/61/61 65/65/65
f 61/61/61 57/57/57 65/65/65
f 60/60/60 57/57/57 68/68/68
f 57/57/57 61/61/61 68/68/68
f 61/61/61 64/64/64 68/68/68
f 64/64/64 60/60/60 68/68/68
f 61/61/61 62/62/62 70/70/70
f 62/62/62 63/63/63 70/70/70
f 63/63/63 64/64/64 70/70/70
f 64/64/64 61/61/61 70/70/70
f 59/59/59 60/60/60 67/67/67
f 60/60/60 64/64/64 67/67/67
f 64/64/64 63/63/63 67/67/67
f 63/63/63 59/59/59 67/67/67
