#Produced by Art of Illusion 2.3.1, Tue Sep 19 18:52:03 MDT 2006
mtllib WhiteBoard.mtl
g Whiteboard
usemtl White1
v -46.875 -22.875 0.5
v 46.875 -22.875 0.5
v 46.875 -22.875 -0.5
v -46.875 -22.875 -0.5
v -46.875 22.875 0.5
v 46.875 22.875 0.5
v 46.875 22.875 -0.5
v -46.875 22.875 -0.5
v 0 0 0.5
v 46.875 0 0
v 0 0 -0.5
v -46.875 0 0
v 0 -22.875 0
v 0 22.875 0
vn -0.57735 -0.57735 0.57735
vn 0.57735 -0.57735 0.57735
vn 0.57735 -0.57735 -0.57735
vn -0.57735 -0.57735 -0.57735
vn -0.57735 0.57735 0.57735
vn 0.57735 0.57735 0.57735
vn 0.57735 0.57735 -0.57735
vn -0.57735 0.57735 -0.57735
vn 0 0 1
vn 1 0 0
vn 0 0 -1
vn -1 0 0
vn 0 -1 0
vn 0 1 0
f 2//2 1//1 13//13
f 3//3 2//2 13//13
f 4//4 3//3 13//13
f 1//1 4//4 13//13
f 2//2 3//3 10//10
f 3//3 7//7 10//10
f 7//7 6//6 10//10
f 6//6 2//2 10//10
f 1//1 2//2 9//9
f 2//2 6//6 9//9
f 6//6 5//5 9//9
f 5//5 1//1 9//9
f 4//4 1//1 12//12
f 1//1 5//5 12//12
f 5//5 8//8 12//12
f 8//8 4//4 12//12
f 5//5 6//6 14//14
f 6//6 7//7 14//14
f 7//7 8//8 14//14
f 8//8 5//5 14//14
f 3//3 4//4 11//11
f 4//4 8//8 11//11
f 8//8 7//7 11//11
f 7//7 3//3 11//11
g Left_Edge
usemtl Metal
v -48.125 -24.125 0.6
v -46.875 -24.125 0.6
v -46.875 -24.125 -0.6
v -48.125 -24.125 -0.6
v -48.125 24.125 0.6
v -46.875 24.125 0.6
v -46.875 24.125 -0.6
v -48.125 24.125 -0.6
v -47.5 0 0.6
v -46.875 0 0
v -47.5 0 -0.6
v -48.125 0 0
v -47.5 -24.125 0
v -47.5 24.125 0
vn -0.57735 -0.57735 0.57735
vn 0.57735 -0.57735 0.57735
vn 0.57735 -0.57735 -0.57735
vn -0.57735 -0.57735 -0.57735
vn -0.57735 0.57735 0.57735
vn 0.57735 0.57735 0.57735
vn 0.57735 0.57735 -0.57735
vn -0.57735 0.57735 -0.57735
vn 0 0 1
vn 1 0 0
vn 0 0 -1
vn -1 0 0
vn 0 -1 0
vn 0 1 0
f 16//16 15//15 27//27
f 17//17 16//16 27//27
f 18//18 17//17 27//27
f 15//15 18//18 27//27
f 16//16 17//17 24//24
f 17//17 21//21 24//24
f 21//21 20//20 24//24
f 20//20 16//16 24//24
f 15//15 16//16 23//23
f 16//16 20//20 23//23
f 20//20 19//19 23//23
f 19//19 15//15 23//23
f 18//18 15//15 26//26
f 15//15 19//19 26//26
f 19//19 22//22 26//26
f 22//22 18//18 26//26
f 19//19 20//20 28//28
f 20//20 21//21 28//28
f 21//21 22//22 28//28
f 22//22 19//19 28//28
f 17//17 18//18 25//25
f 18//18 22//22 25//25
f 22//22 21//21 25//25
f 21//21 17//17 25//25
g Right_Edge
usemtl Metal
v 46.875 -24.125 0.6
v 48.125 -24.125 0.6
v 48.125 -24.125 -0.6
v 46.875 -24.125 -0.6
v 46.875 24.125 0.6
v 48.125 24.125 0.6
v 48.125 24.125 -0.6
v 46.875 24.125 -0.6
v 47.5 0 0.6
v 48.125 0 0
v 47.5 0 -0.6
v 46.875 0 0
v 47.5 -24.125 0
v 47.5 24.125 0
vn -0.57735 -0.57735 0.57735
vn 0.57735 -0.57735 0.57735
vn 0.57735 -0.57735 -0.57735
vn -0.57735 -0.57735 -0.57735
vn -0.57735 0.57735 0.57735
vn 0.57735 0.57735 0.57735
vn 0.57735 0.57735 -0.57735
vn -0.57735 0.57735 -0.57735
vn 0 0 1
vn 1 0 0
vn 0 0 -1
vn -1 0 0
vn 0 -1 0
vn 0 1 0
f 30//30 29//29 41//41
f 31//31 30//30 41//41
f 32//32 31//31 41//41
f 29//29 32//32 41//41
f 30//30 31//31 38//38
f 31//31 35//35 38//38
f 35//35 34//34 38//38
f 34//34 30//30 38//38
f 29//29 30//30 37//37
f 30//30 34//34 37//37
f 34//34 33//33 37//37
f 33//33 29//29 37//37
f 32//32 29//29 40//40
f 29//29 33//33 40//40
f 33//33 36//36 40//40
f 36//36 32//32 40//40
f 33//33 34//34 42//42
f 34//34 35//35 42//42
f 35//35 36//36 42//42
f 36//36 33//33 42//42
f 31//31 32//32 39//39
f 32//32 36//36 39//39
f 36//36 35//35 39//39
f 35//35 31//31 39//39
g Bottom_Edge
usemtl Metal
v -48.125 22.875 2.6
v 48.125 22.875 2.6
v 48.125 22.875 -0.6
v -48.125 22.875 -0.6
v -48.125 24.125 2.6
v 48.125 24.125 2.6
v 48.125 24.125 -0.6
v -48.125 24.125 -0.6
v 0 23.5 2.6
v 48.125 23.5 1
v 0 23.5 -0.6
v -48.125 23.5 1
v 0 22.875 1
v 0 24.125 1
vn -0.57735 -0.57735 0.57735
vn 0.57735 -0.57735 0.57735
vn 0.57735 -0.57735 -0.57735
vn -0.57735 -0.57735 -0.57735
vn -0.57735 0.57735 0.57735
vn 0.57735 0.57735 0.57735
vn 0.57735 0.57735 -0.57735
vn -0.57735 0.57735 -0.57735
vn 0 0 1
vn 1 0 0
vn 0 0 -1
vn -1 0 0
vn 0 -1 0
vn 0 1 0
f 44//44 43//43 55//55
f 45//45 44//44 55//55
f 46//46 45//45 55//55
f 43//43 46//46 55//55
f 44//44 45//45 52//52
f 45//45 49//49 52//52
f 49//49 48//48 52//52
f 48//48 44//44 52//52
f 43//43 44//44 51//51
f 44//44 48//48 51//51
f 48//48 47//47 51//51
f 47//47 43//43 51//51
f 46//46 43//43 54//54
f 43//43 47//47 54//54
f 47//47 50//50 54//54
f 50//50 46//46 54//54
f 47//47 48//48 56//56
f 48//48 49//49 56//56
f 49//49 50//50 56//56
f 50//50 47//47 56//56
f 45//45 46//46 53//53
f 46//46 50//50 53//53
f 50//50 49//49 53//53
f 49//49 45//45 53//53
g Top_Edge
usemtl Metal
v -47.875 -24.125 0.6
v 47.875 -24.125 0.6
v 47.875 -24.125 -0.6
v -47.875 -24.125 -0.6
v -47.875 -22.875 0.6
v 47.875 -22.875 0.6
v 47.875 -22.875 -0.6
v -47.875 -22.875 -0.6
v 0 -23.5 0.6
v 47.875 -23.5 0
v 0 -23.5 -0.6
v -47.875 -23.5 0
v 0 -24.125 0
v 0 -22.875 0
vn -0.57735 -0.57735 0.57735
vn 0.57735 -0.57735 0.57735
vn 0.57735 -0.57735 -0.57735
vn -0.57735 -0.57735 -0.57735
vn -0.57735 0.57735 0.57735
vn 0.57735 0.57735 0.57735
vn 0.57735 0.57735 -0.57735
vn -0.57735 0.57735 -0.57735
vn 0 0 1
vn 1 0 0
vn 0 0 -1
vn -1 0 0
vn 0 -1 0
vn 0 1 0
f 58//58 57//57 69//69
f 59//59 58//58 69//69
f 60//60 59//59 69//69
f 57//57 60//60 69//69
f 58//58 59//59 66//66
f 59//59 63//63 66//66
f 63//63 62//62 66//66
f 62//62 58//58 66//66
f 57//57 58//58 65//65
f 58//58 62//62 65//65
f 62//62 61//61 65//65
f 61//61 57//57 65//65
f 60//60 57//57 68//68
f 57//57 61//61 68//68
f 61//61 64//64 68//68
f 64//64 60//60 68//68
f 61//61 62//62 70//70
f 62//62 63//63 70//70
f 63//63 64//64 70//70
f 64//64 61//61 70//70
f 59//59 60//60 67//67
f 60//60 64//64 67//67
f 64//64 63//63 67//67
f 63//63 59//59 67//67
g Top
usemtl Black_Top
v 25.54155 22.49901 1.76488
v 25.54155 22.49901 1.42488
v 25.54155 22.25859 1.52447
v 25.54155 22.15901 1.76488
v 25.54155 22.25859 2.0053
v 25.54155 22.49901 2.10488
v 25.54155 22.73942 2.0053
v 25.54155 22.83901 1.76488
v 25.54155 22.73942 1.52447
v 24.54155 22.49901 1.50988
v 24.54155 22.31869 1.58457
v 24.54155 22.24401 1.76488
v 24.54155 22.31869 1.94519
v 24.54155 22.49901 2.01988
v 24.54155 22.67932 1.94519
v 24.54155 22.75401 1.76488
v 24.54155 22.67932 1.58457
v 24.54155 22.49901 1.76488
vn 1 0 -0
vn 0.59818 0 -0.80136
vn 0.59818 -0.56665 -0.56665
vn 0.59818 -0.80136 -0
vn 0.59818 -0.56665 0.56665
vn 0.59818 -0 0.80136
vn 0.59818 0.56665 0.56665
vn 0.59818 0.80136 -0
vn 0.59818 0.56665 -0.56665
vn -0.66182 0 -0.74966
vn -0.66182 -0.53009 -0.53009
vn -0.66182 -0.74966 0
vn -0.66182 -0.53009 0.53009
vn -0.66182 -0 0.74966
vn -0.66182 0.53009 0.53009
vn -0.66182 0.74966 0
vn -0.66182 0.53009 -0.53009
vn -1 -0 0
f 73//73 72//72 71//71
f 74//74 73//73 71//71
f 75//75 74//74 71//71
f 76//76 75//75 71//71
f 77//77 76//76 71//71
f 78//78 77//77 71//71
f 79//79 78//78 71//71
f 72//72 79//79 71//71
f 80//80 72//72 73//73
f 81//81 73//73 74//74
f 82//82 74//74 75//75
f 83//83 75//75 76//76
f 84//84 76//76 77//77
f 85//85 77//77 78//78
f 86//86 78//78 79//79
f 87//87 79//79 72//72
f 80//80 73//73 81//81
f 81//81 74//74 82//82
f 82//82 75//75 83//83
f 83//83 76//76 84//84
f 84//84 77//77 85//85
f 85//85 78//78 86//86
f 86//86 79//79 87//87
f 87//87 72//72 80//80
f 88//88 80//80 81//81
f 88//88 81//81 82//82
f 88//88 82//82 83//83
f 88//88 83//83 84//84
f 88//88 84//84 85//85
f 88//88 85//85 86//86
f 88//88 86//86 87//87
f 88//88 87//87 80//80
g Bottom
usemtl White
v 21.05755 22.49901 1.76488
v 21.05755 22.49901 2.13988
v 21.05755 22.23384 2.03005
v 21.05755 22.12401 1.76488
v 21.05755 22.23384 1.49972
v 21.05755 22.49901 1.38988
v 21.05755 22.76417 1.49972
v 21.05755 22.87401 1.76488
v 21.05755 22.76417 2.03005
v 24.55755 22.49901 2.13988
v 24.55755 22.23384 2.03005
v 24.55755 22.12401 1.76488
v 24.55755 22.23384 1.49972
v 24.55755 22.49901 1.38988
v 24.55755 22.76417 1.49972
v 24.55755 22.87401 1.76488
v 24.55755 22.76417 2.03005
v 24.55755 22.49901 1.76488
vn -1 -0 0
vn -0.63026 0 0.77638
vn -0.63026 -0.54899 0.54899
vn -0.63026 -0.77638 0
vn -0.63026 -0.54899 -0.54899
vn -0.63026 -0 -0.77638
vn -0.63026 0.54899 -0.54899
vn -0.63026 0.77638 0
vn -0.63026 0.54899 0.54899
vn 0.63026 0 0.77638
vn 0.63026 -0.54899 0.54899
vn 0.63026 -0.77638 -0
vn 0.63026 -0.54899 -0.54899
vn 0.63026 0 -0.77638
vn 0.63026 0.54899 -0.54899
vn 0.63026 0.77638 -0
vn 0.63026 0.54899 0.54899
vn 1 0 -0
f 91//91 90//90 89//89
f 92//92 91//91 89//89
f 93//93 92//92 89//89
f 94//94 93//93 89//89
f 95//95 94//94 89//89
f 96//96 95//95 89//89
f 97//97 96//96 89//89
f 90//90 97//97 89//89
f 98//98 90//90 91//91
f 99//99 91//91 92//92
f 100//100 92//92 93//93
f 101//101 93//93 94//94
f 102//102 94//94 95//95
f 103//103 95//95 96//96
f 104//104 96//96 97//97
f 105//105 97//97 90//90
f 98//98 91//91 99//99
f 99//99 92//92 100//100
f 100//100 93//93 101//101
f 101//101 94//94 102//102
f 102//102 95//95 103//103
f 103//103 96//96 104//104
f 104//104 97//97 105//105
f 105//105 90//90 98//98
f 106//106 98//98 99//99
f 106//106 99//99 100//100
f 106//106 100//100 101//101
f 106//106 101//101 102//102
f 106//106 102//102 103//103
f 106//106 103//103 104//104
f 106//106 104//104 105//105
f 106//106 105//105 98//98
g Bottom_1
usemtl White
v -24.684 22.5 1.71196
v -24.684 22.5 2.08696
v -24.684 22.23483 1.97712
v -24.684 22.125 1.71196
v -24.684 22.23483 1.44679
v -24.684 22.5 1.33696
v -24.684 22.76517 1.44679
v -24.684 22.875 1.71196
v -24.684 22.76517 1.97712
v -21.184 22.5 2.08696
v -21.184 22.23483 1.97712
v -21.184 22.125 1.71196
v -21.184 22.23483 1.44679
v -21.184 22.5 1.33696
v -21.184 22.76517 1.44679
v -21.184 22.875 1.71196
v -21.184 22.76517 1.97712
v -21.184 22.5 1.71196
vn -1 -0 0
vn -0.63026 0 0.77638
vn -0.63026 -0.54899 0.54899
vn -0.63026 -0.77638 0
vn -0.63026 -0.54899 -0.54899
vn -0.63026 -0 -0.77638
vn -0.63026 0.54899 -0.54899
vn -0.63026 0.77638 0
vn -0.63026 0.54899 0.54899
vn 0.63026 0 0.77638
vn 0.63026 -0.54899 0.54899
vn 0.63026 -0.77638 -0
vn 0.63026 -0.54899 -0.54899
vn 0.63026 0 -0.77638
vn 0.63026 0.54899 -0.54899
vn 0.63026 0.77638 -0
vn 0.63026 0.54899 0.54899
vn 1 0 -0
f 109//109 108//108 107//107
f 110//110 109//109 107//107
f 111//111 110//110 107//107
f 112//112 111//111 107//107
f 113//113 112//112 107//107
f 114//114 113//113 107//107
f 115//115 114//114 107//107
f 108//108 115//115 107//107
f 116//116 108//108 109//109
f 117//117 109//109 110//110
f 118//118 110//110 111//111
f 119//119 111//111 112//112
f 120//120 112//112 113//113
f 121//121 113//113 114//114
f 122//122 114//114 115//115
f 123//123 115//115 108//108
f 116//116 109//109 117//117
f 117//117 110//110 118//118
f 118//118 111//111 119//119
f 119//119 112//112 120//120
f 120//120 113//113 121//121
f 121//121 114//114 122//122
f 122//122 115//115 123//123
f 123//123 108//108 116//116
f 124//124 116//116 117//117
f 124//124 117//117 118//118
f 124//124 118//118 119//119
f 124//124 119//119 120//120
f 124//124 120//120 121//121
f 124//124 121//121 122//122
f 124//124 122//122 123//123
f 124//124 123//123 116//116
g Top_1
usemtl Black_Top
v -20.2 22.5 1.71196
v -20.2 22.5 1.37196
v -20.2 22.25958 1.47154
v -20.2 22.16 1.71196
v -20.2 22.25958 1.95237
v -20.2 22.5 2.05196
v -20.2 22.74042 1.95237
v -20.2 22.84 1.71196
v -20.2 22.74042 1.47154
v -21.2 22.5 1.45696
v -21.2 22.31969 1.53164
v -21.2 22.245 1.71196
v -21.2 22.31969 1.89227
v -21.2 22.5 1.96696
v -21.2 22.68031 1.89227
v -21.2 22.755 1.71196
v -21.2 22.68031 1.53164
v -21.2 22.5 1.71196
vn 1 0 -0
vn 0.59818 0 -0.80136
vn 0.59818 -0.56665 -0.56665
vn 0.59818 -0.80136 -0
vn 0.59818 -0.56665 0.56665
vn 0.59818 -0 0.80136
vn 0.59818 0.56665 0.56665
vn 0.59818 0.80136 -0
vn 0.59818 0.56665 -0.56665
vn -0.66182 0 -0.74966
vn -0.66182 -0.53009 -0.53009
vn -0.66182 -0.74966 0
vn -0.66182 -0.53009 0.53009
vn -0.66182 -0 0.74966
vn -0.66182 0.53009 0.53009
vn -0.66182 0.74966 0
vn -0.66182 0.53009 -0.53009
vn -1 -0 0
f 127//127 126//126 125//125
f 128//128 127//127 125//125
f 129//129 128//128 125//125
f 130//130 129//129 125//125
f 131//131 130//130 125//125
f 132//132 131//131 125//125
f 133//133 132//132 125//125
f 126//126 133//133 125//125
f 134//134 126//126 127//127
f 135//135 127//127 128//128
f 136//136 128//128 129//129
f 137//137 129//129 130//130
f 138//138 130//130 131//131
f 139//139 131//131 132//132
f 140//140 132//132 133//133
f 141//141 133//133 126//126
f 134//134 127//127 135//135
f 135//135 128//128 136//136
f 136//136 129//129 137//137
f 137//137 130//130 138//138
f 138//138 131//131 139//139
f 139//139 132//132 140//140
f 140//140 133//133 141//141
f 141//141 126//126 134//134
f 142//142 134//134 135//135
f 142//142 135//135 136//136
f 142//142 136//136 137//137
f 142//142 137//137 138//138
f 142//142 138//138 139//139
f 142//142 139//139 140//140
f 142//142 140//140 141//141
f 142//142 141//141 134//134
g Bottom_2
usemtl White
v 17.716 22.5 1.812
v 17.716 22.5 1.437
v 17.716 22.23483 1.54683
v 17.716 22.125 1.812
v 17.716 22.23483 2.07717
v 17.716 22.5 2.187
v 17.716 22.76517 2.07717
v 17.716 22.875 1.812
v 17.716 22.76517 1.54683
v 14.216 22.5 1.437
v 14.216 22.23483 1.54683
v 14.216 22.125 1.812
v 14.216 22.23483 2.07717
v 14.216 22.5 2.187
v 14.216 22.76517 2.07717
v 14.216 22.875 1.812
v 14.216 22.76517 1.54683
v 14.216 22.5 1.812
vn 1 -0 0
vn 0.63026 0 -0.77638
vn 0.63026 -0.54899 -0.54899
vn 0.63026 -0.77638 -0
vn 0.63026 -0.54899 0.54899
vn 0.63026 -0 0.77638
vn 0.63026 0.54899 0.54899
vn 0.63026 0.77638 0
vn 0.63026 0.54899 -0.54899
vn -0.63026 0 -0.77638
vn -0.63026 -0.54899 -0.54899
vn -0.63026 -0.77638 -0
vn -0.63026 -0.54899 0.54899
vn -0.63026 -0 0.77638
vn -0.63026 0.54899 0.54899
vn -0.63026 0.77638 0
vn -0.63026 0.54899 -0.54899
vn -1 0 -0
f 145//145 144//144 143//143
f 146//146 145//145 143//143
f 147//147 146//146 143//143
f 148//148 147//147 143//143
f 149//149 148//148 143//143
f 150//150 149//149 143//143
f 151//151 150//150 143//143
f 144//144 151//151 143//143
f 152//152 144//144 145//145
f 153//153 145//145 146//146
f 154//154 146//146 147//147
f 155//155 147//147 148//148
f 156//156 148//148 149//149
f 157//157 149//149 150//150
f 158//158 150//150 151//151
f 159//159 151//151 144//144
f 152//152 145//145 153//153
f 153//153 146//146 154//154
f 154//154 147//147 155//155
f 155//155 148//148 156//156
f 156//156 149//149 157//157
f 157//157 150//150 158//158
f 158//158 151//151 159//159
f 159//159 144//144 152//152
f 160//160 152//152 153//153
f 160//160 153//153 154//154
f 160//160 154//154 155//155
f 160//160 155//155 156//156
f 160//160 156//156 157//157
f 160//160 157//157 158//158
f 160//160 158//158 159//159
f 160//160 159//159 152//152
g Top_2
usemtl Brown_Top
v 18.7 22.5 1.812
v 18.7 22.5 1.472
v 18.7 22.25958 1.57158
v 18.7 22.16 1.812
v 18.7 22.25958 2.05242
v 18.7 22.5 2.152
v 18.7 22.74042 2.05242
v 18.7 22.84 1.812
v 18.7 22.74042 1.57158
v 17.7 22.5 1.557
v 17.7 22.31969 1.63169
v 17.7 22.245 1.812
v 17.7 22.31969 1.99231
v 17.7 22.5 2.067
v 17.7 22.68031 1.99231
v 17.7 22.755 1.812
v 17.7 22.68031 1.63169
v 17.7 22.5 1.812
vn 1 -0 0
vn 0.59818 0 -0.80136
vn 0.59818 -0.56665 -0.56665
vn 0.59818 -0.80136 0
vn 0.59818 -0.56665 0.56665
vn 0.59818 -0 0.80136
vn 0.59818 0.56665 0.56665
vn 0.59818 0.80136 0
vn 0.59818 0.56665 -0.56665
vn -0.66182 0 -0.74966
vn -0.66182 -0.53009 -0.53009
vn -0.66182 -0.74966 -0
vn -0.66182 -0.53009 0.53009
vn -0.66182 -0 0.74966
vn -0.66182 0.53009 0.53009
vn -0.66182 0.74966 -0
vn -0.66182 0.53009 -0.53009
vn -1 0 -0
f 163//163 162//162 161//161
f 164//164 163//163 161//161
f 165//165 164//164 161//161
f 166//166 165//165 161//161
f 167//167 166//166 161//161
f 168//168 167//167 161//161
f 169//169 168//168 161//161
f 162//162 169//169 161//161
f 170//170 162//162 163//163
f 171//171 163//163 164//164
f 172//172 164//164 165//165
f 173//173 165//165 166//166
f 174//174 166//166 167//167
f 175//175 167//167 168//168
f 176//176 168//168 169//169
f 177//177 169//169 162//162
f 170//170 163//163 171//171
f 171//171 164//164 172//172
f 172//172 165//165 173//173
f 173//173 166//166 174//174
f 174//174 167//167 175//175
f 175//175 168//168 176//176
f 176//176 169//169 177//177
f 177//177 162//162 170//170
f 178//178 170//170 171//171
f 178//178 171//171 172//172
f 178//178 172//172 173//173
f 178//178 173//173 174//174
f 178//178 174//174 175//175
f 178//178 175//175 176//176
f 178//178 176//176 177//177
f 178//178 177//177 170//170
